<svg width="33" height="32" viewBox="0 0 33 32" fill="none" xmlns="http://www.w3.org/2000/svg">
<path d="M6.33411 5.0625H26.3339C27.112 5.06576 27.8573 5.3763 28.4075 5.92651C28.9577 6.47675 29.2683 7.22211 29.2715 8.00026V21.9997C29.2683 22.7779 28.9577 23.5233 28.4075 24.0735C27.8572 24.6237 27.1119 24.9343 26.3337 24.9375H17.334H17.2715V25V27V27.0625H17.334H20.334C20.5826 27.0625 20.8211 27.1613 20.9969 27.3371C21.1727 27.5129 21.2715 27.7514 21.2715 28C21.2715 28.2486 21.1727 28.4871 20.9969 28.6629C20.8211 28.8387 20.5826 28.9375 20.334 28.9375H12.334C12.0853 28.9375 11.8469 28.8387 11.6711 28.6629C11.4953 28.4871 11.3965 28.2486 11.3965 28C11.3965 27.7514 11.4953 27.5129 11.6711 27.3371C11.8469 27.1613 12.0853 27.0625 12.334 27.0625H15.334H15.3965V27V25V24.9375H15.334H6.33424C5.55609 24.9343 4.81073 24.6237 4.26049 24.0735C3.71028 23.5233 3.39974 22.778 3.39648 21.9999V8.00013C3.39974 7.22203 3.71028 6.47672 4.26049 5.92651C4.8107 5.3763 5.55601 5.06576 6.33411 5.0625ZM5.33398 19.9375H5.27148V20V22C5.27148 22.2818 5.38343 22.552 5.58268 22.7513C5.78194 22.9506 6.05219 23.0625 6.33398 23.0625H26.334C26.6158 23.0625 26.886 22.9506 27.0853 22.7513C27.2845 22.552 27.3965 22.2818 27.3965 22V20V19.9375H27.334H5.33398Z" fill="#6A8DAB" stroke="#6A8DAB" stroke-width="0.125"/>
</svg>
